<svg width="72" height="73" viewBox="0 0 72 73" fill="#B7E9F7" xmlns="http://www.w3.org/2000/svg">
<g clip-path="url(#clip0_376_41863)">
<path d="M44.7188 30.4249C42.3543 30.4249 40.0577 30.8835 37.8932 31.7876C37.1766 32.087 36.8384 32.9106 37.1377 33.6272C37.437 34.344 38.2607 34.6818 38.9773 34.3828C40.7967 33.6227 42.7283 33.2374 44.7188 33.2374C52.9381 33.2374 59.625 39.9244 59.625 48.1437C59.625 56.3629 52.9381 63.0499 44.7188 63.0499C36.4994 63.0499 29.8125 56.3629 29.8125 48.1437C29.8125 46.1564 30.1967 44.2273 30.9545 42.4104C31.2535 41.6935 30.9147 40.8701 30.198 40.5712C29.4816 40.2726 28.6577 40.611 28.3587 41.3277C27.4572 43.4896 27 45.7827 27 48.1437C27 57.9139 34.9485 65.8624 44.7188 65.8624C54.489 65.8624 62.4375 57.9139 62.4375 48.1437C62.4375 38.3735 54.489 30.4249 44.7188 30.4249Z" fill="#B7E9F7"/>
<path d="M44.7188 59.6749C51.0771 59.6749 56.25 54.502 56.25 48.1437C56.25 41.7853 51.0771 36.6124 44.7188 36.6124C38.3604 36.6124 33.1875 41.7853 33.1875 48.1437C33.1875 54.502 38.3605 59.6749 44.7188 59.6749ZM44.7188 39.4249C49.5263 39.4249 53.4375 43.3363 53.4375 48.1437C53.4375 52.9511 49.5263 56.8624 44.7188 56.8624C39.9112 56.8624 36 52.9512 36 48.1437C36 43.3361 39.9112 39.4249 44.7188 39.4249Z" fill="#B7E9F7"/>
<path d="M64.8681 23.6749H60.5903L55.6803 15.3658C55.4273 14.9376 54.9669 14.6749 54.4697 14.6749H34.9696C34.4723 14.6749 34.012 14.9376 33.759 15.3658L28.8491 23.6749H20.8125V21.9874C20.8125 19.1959 18.5415 16.9249 15.75 16.9249C12.9585 16.9249 10.6875 19.1959 10.6875 21.9874V23.6749H7.13194C3.19936 23.6749 0 26.8743 0 30.807V65.4803C0 69.4131 3.19936 72.6124 7.13194 72.6124H64.8679C68.8005 72.6124 71.9999 69.4131 71.9999 65.4803V30.807C72 26.8743 68.8005 23.6749 64.8681 23.6749ZM35.772 17.4874H53.6671L57.3234 23.6749H32.1158L35.772 17.4874ZM13.5 21.9874C13.5 20.7468 14.5094 19.7374 15.75 19.7374C16.9906 19.7374 18 20.7468 18 21.9874V23.6749H13.5V21.9874ZM69.1875 65.4803C69.1875 67.8622 67.2498 69.7999 64.8681 69.7999H7.13194C4.75017 69.7999 2.8125 67.8621 2.8125 65.4803V30.807C2.8125 28.4251 4.75017 26.4874 7.13194 26.4874H64.8679C67.2497 26.4874 69.1874 28.4251 69.1874 30.807V65.4803H69.1875Z" fill="#B7E9F7"/>
<path d="M44.7188 45.4015C46.2309 45.4015 47.4609 46.6317 47.4609 48.1437C47.4609 48.9203 48.0905 49.5499 48.8672 49.5499C49.6439 49.5499 50.2734 48.9203 50.2734 48.1437C50.2734 45.0809 47.7816 42.589 44.7188 42.589C43.9421 42.589 43.3125 43.2187 43.3125 43.9952C43.3125 44.7718 43.9421 45.4015 44.7188 45.4015Z" fill="#B7E9F7"/>
<path d="M44.7188 10.9752C45.4954 10.9752 46.125 10.3455 46.125 9.56896V2.06339C46.125 1.28685 45.4954 0.657135 44.7188 0.657135C43.9421 0.657135 43.3125 1.28671 43.3125 2.06339V9.56896C43.3125 10.3456 43.9421 10.9752 44.7188 10.9752Z" fill="#B7E9F7"/>
<path d="M51.4101 10.9752C51.77 10.9752 52.13 10.8378 52.4045 10.5633L57.5642 5.40366C58.1133 4.85452 58.1133 3.96408 57.564 3.4148C57.0149 2.8658 56.1244 2.8658 55.5753 3.4148L50.4158 8.57461C49.8666 9.12375 49.8666 10.0142 50.4158 10.5635C50.6904 10.838 51.0503 10.9752 51.4101 10.9752Z" fill="#B7E9F7"/>
<path d="M37.0324 10.5635C37.307 10.838 37.6669 10.9753 38.0267 10.9753C38.3866 10.9753 38.7466 10.838 39.0211 10.5635C39.5703 10.0143 39.5704 9.12388 39.0213 8.5746L33.8616 3.41493C33.3124 2.86607 32.422 2.86593 31.8729 3.41493C31.3237 3.96407 31.3236 4.85451 31.8727 5.40379L37.0324 10.5635Z" fill="#B7E9F7"/>
<path d="M19.4062 35.2062H12.0938C11.3171 35.2062 10.6875 35.8359 10.6875 36.6124C10.6875 37.3891 11.3171 38.0187 12.0938 38.0187H19.4062C20.1829 38.0187 20.8125 37.3891 20.8125 36.6124C20.8125 35.8358 20.1829 35.2062 19.4062 35.2062Z" fill="#B7E9F7"/>
<path d="M33.1836 38.0185C33.5534 38.0185 33.9163 37.8681 34.1778 37.6065C34.4394 37.3449 34.5898 36.9834 34.5898 36.6123C34.5898 36.2424 34.4394 35.8796 34.1778 35.6181C33.9163 35.3566 33.5534 35.206 33.1836 35.206C32.8138 35.206 32.4509 35.3565 32.1894 35.6181C31.9264 35.8796 31.7773 36.2426 31.7773 36.6123C31.7773 36.9821 31.9264 37.3449 32.1894 37.6065C32.4509 37.8681 32.8123 38.0185 33.1836 38.0185Z" fill="#B7E9F7"/>
</g>
<defs>
<clipPath id="clip0_376_41863">
<rect width="72" height="72" fill="white" transform="translate(0 0.634766)"/>
</clipPath>
</defs>
</svg>
