<svg width="72" height="73" viewBox="0 0 72 73" fill="#B7E9F7" xmlns="http://www.w3.org/2000/svg">
<path d="M70.5938 67.0098H68.1915V34.5165C68.1915 33.7399 67.5619 33.1103 66.7852 33.1103H56.6602C55.8835 33.1103 55.254 33.7399 55.254 34.5165V67.0098H51.0431V47.2754C51.0431 46.4988 50.4135 45.8692 49.6368 45.8692H39.5118C38.7352 45.8692 38.1056 46.4988 38.1056 47.2754V67.0098H33.8947V57.7943C33.8947 57.0177 33.2651 56.3881 32.4885 56.3881C31.7118 56.3881 31.0822 57.0177 31.0822 57.7943V67.0098H23.7697V35.9228H31.0822V45.1381C31.0822 45.9148 31.7118 46.5443 32.4885 46.5443C33.2651 46.5443 33.8947 45.9148 33.8947 45.1381V34.5165C33.8947 33.7399 33.2651 33.1103 32.4885 33.1103H22.3635C21.5868 33.1103 20.9572 33.7399 20.9572 34.5165V67.0098H16.7463V47.2754C16.7463 46.4988 16.1168 45.8692 15.3401 45.8692H5.21508C4.43841 45.8692 3.80883 46.4988 3.80883 47.2754V67.0098H1.40625C0.629578 67.0098 0 67.6394 0 68.416C0 69.1927 0.629578 69.8223 1.40625 69.8223H70.5938C71.3704 69.8223 72 69.1927 72 68.416C72 67.6394 71.3704 67.0098 70.5938 67.0098ZM6.62105 67.0098V48.6817H13.9335V67.0098H6.62105ZM40.9179 67.0098V48.6817H48.2304V67.0098H40.9179ZM58.0665 67.0098V35.9228H65.379V67.0098H58.0665Z" fill="#B7E9F7"/>
<path d="M10.2772 33.5331C13.844 33.5331 16.746 30.6312 16.746 27.0644C16.746 25.79 16.374 24.6016 15.7351 23.599L23.9603 15.374C24.9628 16.0128 26.1514 16.3848 27.4257 16.3848C28.7001 16.3848 29.8885 16.0128 30.891 15.3741L39.1176 23.6007C38.4779 24.6037 38.1053 25.793 38.1053 27.0683C38.1053 30.6351 41.0073 33.5371 44.5741 33.5371C48.1409 33.5371 51.0428 30.6351 51.0428 27.0683C51.0428 25.793 50.6703 24.6037 50.0306 23.6007L58.2572 15.3741C59.2597 16.013 60.4481 16.3848 61.7225 16.3848C65.2893 16.3848 68.1912 13.4828 68.1912 9.91602C68.1912 6.3492 65.2893 3.44727 61.7225 3.44727C58.1557 3.44727 55.2537 6.3492 55.2537 9.91602C55.2537 11.1925 55.6268 12.3826 56.2675 13.3862L48.0418 21.6119C47.0387 20.9722 45.8494 20.5997 44.5741 20.5997C43.2988 20.5997 42.1095 20.9722 41.1064 21.6119L32.8807 13.3862C33.5214 12.3827 33.8945 11.1925 33.8945 9.91616C33.8945 6.34934 30.9925 3.44741 27.4257 3.44741C23.8589 3.44741 20.957 6.34934 20.957 9.91616C20.957 11.1925 21.33 12.3827 21.9707 13.3862L13.7474 21.6094C12.7438 20.9687 11.5537 20.5956 10.2773 20.5956C6.71053 20.5956 3.80859 23.4976 3.80859 27.0644C3.80859 30.6312 6.71039 33.5331 10.2772 33.5331ZM61.7226 6.25977C63.7386 6.25977 65.3789 7.90001 65.3789 9.91602C65.3789 11.932 63.7386 13.5723 61.7226 13.5723C59.7066 13.5723 58.0664 11.932 58.0664 9.91602C58.0664 7.90001 59.7065 6.25977 61.7226 6.25977ZM48.2303 27.0683C48.2303 29.0843 46.5901 30.7246 44.5741 30.7246C42.5581 30.7246 40.9178 29.0843 40.9178 27.0683C40.9178 25.0523 42.5581 23.4121 44.5741 23.4121C46.5901 23.4121 48.2303 25.0523 48.2303 27.0683ZM27.4257 6.25977C29.4417 6.25977 31.082 7.90001 31.082 9.91602C31.082 11.932 29.4417 13.5723 27.4257 13.5723C25.4097 13.5723 23.7695 11.932 23.7695 9.91602C23.7695 7.90001 25.4096 6.25977 27.4257 6.25977ZM10.2772 23.4081C12.2932 23.4081 13.9335 25.0484 13.9335 27.0644C13.9335 29.0804 12.2932 30.7206 10.2772 30.7206C8.2612 30.7206 6.62095 29.0804 6.62095 27.0644C6.62095 25.0484 8.2612 23.4081 10.2772 23.4081Z" fill="#B7E9F7"/>
<path d="M32.4883 50.0602C32.1184 50.0602 31.7556 50.2107 31.4941 50.4723C31.2325 50.7338 31.082 51.0952 31.082 51.4665C31.082 51.8363 31.2325 52.1991 31.4941 52.4607C31.7556 52.7223 32.1184 52.8727 32.4883 52.8727C32.8581 52.8727 33.2209 52.7223 33.4825 52.4607C33.7441 52.1991 33.8945 51.8363 33.8945 51.4665C33.8945 51.0966 33.7441 50.7338 33.4825 50.4723C33.2209 50.2107 32.8581 50.0602 32.4883 50.0602Z" fill="#B7E9F7"/>
</svg>
