<svg width="72" height="73" viewBox="0 0 72 73" fill="#B7E9F7" xmlns="http://www.w3.org/2000/svg">
<g clip-path="url(#clip0_376_41861)">
<path d="M6.85938 43.6961C7.44184 43.6961 7.91406 43.2239 7.91406 42.6414V26.0655C7.91406 23.5455 9.96438 21.4952 12.4844 21.4952H59.4766C61.9968 21.4952 64.0469 23.5455 64.0469 26.0713L64.085 33.1141C64.0883 33.6967 64.5681 34.1654 65.1455 34.163C65.728 34.1599 66.1975 33.6852 66.1944 33.1025L66.1563 26.0655C66.1563 22.3824 63.1597 19.3858 59.4766 19.3858H54.0818V1.68945C54.0818 1.10698 53.6097 0.634766 53.0271 0.634766H18.934C18.3515 0.634766 17.8793 1.10698 17.8793 1.68945V19.3858H12.4844C8.80127 19.3858 5.80469 22.3824 5.80469 26.0655V42.6414C5.80469 43.2239 6.27691 43.6961 6.85938 43.6961ZM19.9887 2.74414H51.9723V19.3858H49.82V5.95109C49.82 5.36863 49.348 4.89641 48.7653 4.89641H30.1445C29.562 4.89641 29.0898 5.36863 29.0898 5.95109C29.0898 6.53356 29.562 7.00578 30.1445 7.00578H47.7107V19.386H24.2503V7.00578H25.2195C25.802 7.00578 26.2742 6.53356 26.2742 5.95109C26.2742 5.36863 25.802 4.89641 25.2195 4.89641H23.1956C22.6132 4.89641 22.141 5.36863 22.141 5.95109V19.386H19.9887V2.74414Z" fill="#B7E9F7"/>
<path d="M65.1015 36.9763C64.5189 36.9763 64.0468 37.4486 64.0468 38.031V65.9551C64.0468 68.4751 61.9966 70.5254 59.4765 70.5254H12.4844C9.96438 70.5254 7.91406 68.4751 7.91406 65.9551V47.5665C7.91406 46.9841 7.44184 46.5119 6.85938 46.5119C6.27691 46.5119 5.80469 46.9841 5.80469 47.5665V65.9551C5.80469 69.6382 8.80127 72.6348 12.4844 72.6348H59.4766C63.1597 72.6348 66.1563 69.6382 66.1563 65.9551V38.031C66.1562 37.4486 65.6841 36.9763 65.1015 36.9763Z" fill="#B7E9F7"/>
<path d="M12.5273 68.3731H59.4338C60.7907 68.3731 61.8947 67.2691 61.8947 65.9122V38.183C61.8947 36.8261 60.7907 35.7221 59.4338 35.7221H45.8385C43.0134 33.8386 39.6233 32.739 35.9806 32.739C32.338 32.739 28.9478 33.8386 26.1228 35.7221H12.5273C11.1705 35.7221 10.0664 36.8261 10.0664 38.183V65.9122C10.0664 67.2692 11.1705 68.3731 12.5273 68.3731ZM59.4338 37.8315C59.6277 37.8315 59.7854 37.9892 59.7854 38.183V65.9122C59.7854 66.106 59.6277 66.2637 59.4338 66.2637H44.3826C49.9815 63.2568 53.7975 57.344 53.7975 50.5561C53.7975 45.5761 51.743 41.0677 48.438 37.8315H59.4338ZM51.6883 50.5561C51.6883 59.2173 44.6419 66.2637 35.9806 66.2637C27.3194 66.2637 20.273 59.2173 20.273 50.5561C20.273 41.8948 27.3194 34.8484 35.9806 34.8484C44.6417 34.8484 51.6883 41.8948 51.6883 50.5561ZM12.1758 38.183C12.1758 37.9892 12.3336 37.8315 12.5273 37.8315H23.523C20.218 41.0677 18.1635 45.5761 18.1635 50.5561C18.1635 57.344 21.9795 63.2568 27.5784 66.2637H12.5273C12.3336 66.2637 12.1758 66.106 12.1758 65.9122V38.183Z" fill="#B7E9F7"/>
<path d="M12.5156 34.2801H15.9535C17.3104 34.2801 18.4144 33.1761 18.4144 31.8192V26.1086C18.4144 24.7517 17.3104 23.6476 15.9535 23.6476H12.5156C11.1587 23.6476 10.0547 24.7517 10.0547 26.1086V31.8192C10.0547 33.1761 11.1586 34.2801 12.5156 34.2801ZM12.1641 26.1084C12.1641 25.9146 12.3218 25.7568 12.5156 25.7568H15.9535C16.1473 25.7568 16.305 25.9146 16.305 26.1084V31.8191C16.305 32.0128 16.1473 32.1706 15.9535 32.1706H12.5156C12.3218 32.1706 12.1641 32.0128 12.1641 31.8191V26.1084Z" fill="#B7E9F7"/>
<path d="M61.893 26.1084C61.893 24.7515 60.789 23.6475 59.4321 23.6475H48.0391C46.6822 23.6475 45.5781 24.7515 45.5781 26.1084V31.8191C45.5781 33.176 46.6822 34.28 48.0391 34.28H59.4321C60.789 34.28 61.893 33.176 61.893 31.8191V26.1084ZM59.7836 31.8192C59.7836 32.013 59.626 32.1708 59.4321 32.1708H48.0391C47.8451 32.1708 47.6875 32.013 47.6875 31.8192V26.1086C47.6875 25.9148 47.8451 25.757 48.0391 25.757H59.4321C59.626 25.757 59.7836 25.9148 59.7836 26.1086V31.8192Z" fill="#B7E9F7"/>
<path d="M41.2966 24.7022C41.2966 24.1197 40.8245 23.6475 40.2419 23.6475H31.7187C31.1363 23.6475 30.6641 24.1197 30.6641 24.7022C30.6641 25.2846 31.1363 25.7569 31.7187 25.7569H40.2419C40.8245 25.7569 41.2966 25.2848 41.2966 24.7022Z" fill="#B7E9F7"/>
<path d="M33.1406 27.9091C32.5582 27.9091 32.0859 28.3813 32.0859 28.9638C32.0859 29.5463 32.5582 30.0185 33.1406 30.0185H38.8227C39.4053 30.0185 39.8774 29.5463 39.8774 28.9638C39.8774 28.3813 39.4053 27.9091 38.8227 27.9091H33.1406Z" fill="#B7E9F7"/>
<path d="M35.9808 60.9665C41.7211 60.9665 46.3911 56.2965 46.3911 50.5561C46.3911 44.8156 41.7211 40.1456 35.9808 40.1456C30.2405 40.1456 25.5703 44.8156 25.5703 50.5561C25.5703 56.2965 30.2405 60.9665 35.9808 60.9665ZM35.9808 42.255C40.558 42.255 44.2817 45.9787 44.2817 50.5561C44.2817 55.1334 40.558 58.8572 35.9808 58.8572C31.4036 58.8572 27.6797 55.1334 27.6797 50.5561C27.6797 45.9787 31.4036 42.255 35.9808 42.255Z" fill="#B7E9F7"/>
<path d="M35.9785 56.2886C39.1395 56.2886 41.7111 53.717 41.7111 50.5561C41.7111 47.3951 39.1395 44.8235 35.9785 44.8235C32.8176 44.8235 30.2461 47.3951 30.2461 50.5561C30.2461 53.717 32.8177 56.2886 35.9785 56.2886ZM35.9785 46.9329C37.9764 46.9329 39.6017 48.5582 39.6017 50.5561C39.6017 52.5539 37.9764 54.1793 35.9785 54.1793C33.9807 54.1793 32.3553 52.5539 32.3553 50.5561C32.3555 48.5582 33.9808 46.9329 35.9785 46.9329Z" fill="#B7E9F7"/>
<path d="M56.7188 17.8018H58.8495C59.4321 17.8018 59.9042 17.3296 59.9042 16.7471C59.9042 16.1647 59.4321 15.6925 58.8495 15.6925H57.7734V14.6164C57.7734 14.0339 57.3014 13.5617 56.7188 13.5617C56.1361 13.5617 55.6641 14.0339 55.6641 14.6164V16.7471C55.6641 17.3296 56.1361 17.8018 56.7188 17.8018Z" fill="#B7E9F7"/>
<path d="M13.1094 17.8018H15.2401C15.8226 17.8018 16.2948 17.3296 16.2948 16.7471V14.6164C16.2948 14.0339 15.8226 13.5617 15.2401 13.5617C14.6577 13.5617 14.1854 14.0339 14.1854 14.6164V15.6925H13.1094C12.5269 15.6925 12.0547 16.1647 12.0547 16.7471C12.0547 17.3296 12.5269 17.8018 13.1094 17.8018Z" fill="#B7E9F7"/>
</g>
<defs>
<clipPath id="clip0_376_41861">
<rect width="72" height="72" fill="white" transform="translate(0 0.634766)"/>
</clipPath>
</defs>
</svg>
