<svg width="72" height="73" viewBox="0 0 72 73" fill="#B7E9F7" xmlns="http://www.w3.org/2000/svg">
<g clip-path="url(#clip0_376_41862)">
<path d="M9.64879 63.061C8.67918 63.0899 7.95088 62.0018 8.34955 61.1162C8.81291 59.9695 10.4835 59.9694 10.9468 61.1162C11.3463 62.0008 10.6174 63.0891 9.64879 63.061Z" fill="#B7E9F7"/>
<path d="M50.2423 65.527H22.9648C22.1882 65.527 21.5586 64.8973 21.5586 64.1208V55.1587C21.5586 54.3822 22.1882 53.7525 22.9648 53.7525H50.2424C51.019 53.7525 51.6487 54.3822 51.6487 55.1587V64.1208C51.6485 64.8973 51.019 65.527 50.2423 65.527ZM24.3711 62.7145H48.8362V56.565H24.3711V62.7145Z" fill="#B7E9F7"/>
<path d="M37.3574 51.4009C34.9246 51.4009 32.9453 49.4193 32.9453 46.9835C32.9453 44.5477 34.9246 42.566 37.3574 42.566C39.7902 42.566 41.7695 44.5477 41.7695 46.9835C41.7695 49.4193 39.7902 51.4009 37.3574 51.4009ZM37.3574 45.3785C36.4754 45.3785 35.7578 46.0985 35.7578 46.9835C35.7578 47.8684 36.4754 48.5884 37.3574 48.5884C38.2396 48.5884 38.957 47.8684 38.957 46.9835C38.957 46.0985 38.2394 45.3785 37.3574 45.3785Z" fill="#B7E9F7"/>
<path d="M47.2402 51.4009C44.8074 51.4009 42.8281 49.4193 42.8281 46.9835C42.8281 44.5477 44.8074 42.566 47.2402 42.566C49.6732 42.566 51.6525 44.5477 51.6525 46.9835C51.6525 49.4193 49.6732 51.4009 47.2402 51.4009ZM47.2402 45.3785C46.3582 45.3785 45.6406 46.0985 45.6406 46.9835C45.6406 47.8684 46.3582 48.5884 47.2402 48.5884C48.1222 48.5884 48.84 47.8684 48.84 46.9835C48.84 46.0985 48.1224 45.3785 47.2402 45.3785Z" fill="#B7E9F7"/>
<path d="M42.2946 25.4028C37.2599 25.4028 33.1641 21.3007 33.1641 16.2588C33.1641 11.2167 37.2599 7.11462 42.2946 7.11462C47.3289 7.11462 51.4248 11.2167 51.4248 16.2588C51.4248 21.3007 47.3289 25.4028 42.2946 25.4028ZM42.2946 9.92698C38.8109 9.92698 35.9766 12.7673 35.9766 16.2586C35.9766 19.7498 38.8107 22.5901 42.2946 22.5901C45.7781 22.5901 48.6123 19.7498 48.6123 16.2586C48.6123 12.7673 45.7783 9.92698 42.2946 9.92698Z" fill="#B7E9F7"/>
<path d="M71.3545 32.3899C70.9523 32.131 70.446 32.0944 70.0106 32.293L59.0937 37.267V33.5236C59.0937 30.7354 56.8284 28.4671 54.0437 28.4671H51.0244C54.8177 25.7387 57.2932 21.2829 57.2932 16.2588C57.2932 7.97623 50.5655 1.23776 42.2962 1.23776C36.2908 1.23776 31.0985 4.79178 28.7056 9.91011C26.3128 4.79178 21.1206 1.23776 15.1151 1.23776C6.84605 1.23762 0.118406 7.97609 0.118406 16.2588C0.118406 21.2829 2.59383 25.7387 6.38719 28.4671H5.04998C2.26533 28.4671 0 30.7354 0 33.5236V66.9753C0 69.7635 2.26533 72.0319 5.04998 72.0319H54.0437C56.8284 72.0319 59.0937 69.7635 59.0937 66.9753V63.232L70.0106 68.2061C70.1965 68.2909 70.3953 68.3326 70.5936 68.3326C70.8595 68.3326 71.1242 68.2574 71.3545 68.109C71.7567 67.8503 72 67.4046 72 66.9264V33.5727C72 33.0942 71.7569 32.6486 71.3545 32.3899ZM42.2962 4.05012C49.0147 4.05012 54.4807 9.52676 54.4807 16.2586C54.4807 22.9903 49.0148 28.467 42.2962 28.467C35.5778 28.467 30.1119 22.9903 30.1119 16.2586C30.112 9.52676 35.5778 4.05012 42.2962 4.05012ZM33.5683 28.4671H23.8433C25.9246 26.9702 27.6092 24.953 28.7058 22.6074C29.8024 24.953 31.4869 26.97 33.5683 28.4671ZM2.93091 16.2588C2.93091 9.5269 8.39672 4.05026 15.1154 4.05026C21.8337 4.05026 27.2997 9.5269 27.2997 16.2588C27.2997 22.9905 21.8339 28.4671 15.1154 28.4671C8.39672 28.4671 2.93091 22.9905 2.93091 16.2588ZM56.2814 66.9753C56.2814 68.2127 55.2776 69.2194 54.0439 69.2194H5.05012C3.81642 69.2194 2.81264 68.2127 2.81264 66.9753V33.5236C2.81264 32.2862 3.81642 31.2796 5.05012 31.2796H8.24147V55.7824C8.24147 56.5589 8.87119 57.1887 9.64772 57.1887C10.4243 57.1887 11.054 56.5589 11.054 55.7824V31.2796H54.0439C55.2776 31.2796 56.2814 32.2862 56.2814 33.5236V66.9753ZM69.1875 64.7404L59.0939 60.1414V40.3577L69.1875 35.7587V64.7404Z" fill="#B7E9F7"/>
<path d="M15.1146 25.4028C10.0802 25.4028 5.98438 21.3007 5.98438 16.2588C5.98438 11.2167 10.0802 7.11462 15.1146 7.11462C20.1493 7.11462 24.2451 11.2167 24.2451 16.2588C24.2451 21.3007 20.1493 25.4028 15.1146 25.4028ZM15.1146 9.92698C11.631 9.92698 8.79688 12.7673 8.79688 16.2586C8.79688 19.7498 11.6309 22.5901 15.1146 22.5901C18.5983 22.5901 21.4326 19.7498 21.4326 16.2586C21.4326 12.7673 18.5984 9.92698 15.1146 9.92698Z" fill="#B7E9F7"/>
</g>
<defs>
<clipPath id="clip0_376_41862">
<rect width="72" height="72" fill="white" transform="translate(0 0.634766)"/>
</clipPath>
</defs>
</svg>
